<svg width="16" height="16" viewBox="0 0 16 16" fill="none" xmlns="http://www.w3.org/2000/svg">
  <path d="M5 7.00002C5.55229 7.00002 6 6.55231 6 6.00002C6 5.44774 5.55229 5.00002 5 5.00002C4.44772 5.00002 4 5.44774 4 6.00002C4 6.55231 4.44772 7.00002 5 7.00002Z" fill="black" style="fill:black;fill-opacity:1;"/>
  <path d="M8 5.50002C8.55229 5.50002 9 5.05231 9 4.50002C9 3.94774 8.55229 3.50002 8 3.50002C7.44772 3.50002 7 3.94774 7 4.50002C7 5.05231 7.44772 5.50002 8 5.50002Z" fill="black" style="fill:black;fill-opacity:1;"/>
  <path d="M11 7.00002C11.5523 7.00002 12 6.55231 12 6.00002C12 5.44774 11.5523 5.00002 11 5.00002C10.4477 5.00002 10 5.44774 10 6.00002C10 6.55231 10.4477 7.00002 11 7.00002Z" fill="black" style="fill:black;fill-opacity:1;"/>
  <path d="M11.5 10C12.0523 10 12.5 9.55231 12.5 9.00002C12.5 8.44774 12.0523 8.00002 11.5 8.00002C10.9477 8.00002 10.5 8.44774 10.5 9.00002C10.5 9.55231 10.9477 10 11.5 10Z" fill="black" style="fill:black;fill-opacity:1;"/>
  <path d="M9.5 12.5C10.0523 12.5 10.5 12.0523 10.5 11.5C10.5 10.9477 10.0523 10.5 9.5 10.5C8.94772 10.5 8.5 10.9477 8.5 11.5C8.5 12.0523 8.94772 12.5 9.5 12.5Z" fill="black" style="fill:black;fill-opacity:1;"/>
  <path d="M8.27 1.00002C7.32828 0.963671 6.38892 1.11785 5.50823 1.45332C4.62754 1.7888 3.82365 2.29865 3.14477 2.95231C2.4659 3.60598 1.926 4.39 1.55745 5.25737C1.18891 6.12474 0.999301 7.0576 1 8.00002C0.999977 8.37068 1.08545 8.73635 1.24977 9.0686C1.4141 9.40085 1.65285 9.69071 1.94745 9.91566C2.24205 10.1406 2.58457 10.2946 2.94837 10.3656C3.31217 10.4366 3.68744 10.4227 4.045 10.325L4.605 10.17C4.82777 10.1092 5.06158 10.1007 5.2882 10.145C5.51482 10.1894 5.72814 10.2855 5.91153 10.4258C6.09492 10.5661 6.24344 10.7469 6.34551 10.9541C6.44759 11.1612 6.50045 11.3891 6.5 11.62V13.5C6.5 13.8978 6.65804 14.2794 6.93934 14.5607C7.22065 14.842 7.60218 15 8 15C8.94242 15.0007 9.87528 14.8111 10.7427 14.4426C11.61 14.074 12.394 13.5341 13.0477 12.8552C13.7014 12.1764 14.2112 11.3725 14.5467 10.4918C14.8822 9.6111 15.0364 8.67174 15 7.73002C14.9275 5.96836 14.1951 4.29839 12.9484 3.05165C11.7016 1.80491 10.0317 1.07257 8.27 1.00002ZM12.325 12.155C11.7667 12.7395 11.0954 13.2045 10.352 13.5217C9.60849 13.8388 8.8083 14.0016 8 14C7.86739 14 7.74022 13.9473 7.64645 13.8536C7.55268 13.7598 7.5 13.6326 7.5 13.5V11.62C7.5 10.957 7.23661 10.3211 6.76777 9.85225C6.29893 9.38341 5.66304 9.12002 5 9.12002C4.77533 9.12042 4.5517 9.15068 4.335 9.21002L3.775 9.36502C3.56584 9.42108 3.34658 9.4282 3.13422 9.38585C2.92186 9.3435 2.72211 9.2528 2.55046 9.1208C2.3788 8.9888 2.23986 8.81903 2.1444 8.62467C2.04894 8.4303 1.99953 8.21656 2 8.00002C1.99938 7.19192 2.16201 6.39202 2.47813 5.64831C2.79424 4.90461 3.25733 4.23242 3.83962 3.67209C4.4219 3.11175 5.11137 2.67481 5.86667 2.38749C6.62196 2.10016 7.42752 1.96837 8.235 2.00002C9.7386 2.07833 11.1599 2.71085 12.2245 3.7755C13.2892 4.84014 13.9217 6.26143 14 7.76502C14.0344 8.57301 13.9036 9.37952 13.6156 10.1352C13.3276 10.8909 12.8884 11.5799 12.325 12.16V12.155Z" fill="black" style="fill:black;fill-opacity:1;"/>
</svg>
