<svg width="16" height="16" viewBox="0 0 16 16" fill="none" xmlns="http://www.w3.org/2000/svg">
<path d="M6.49998 5C7.05227 5 7.49998 4.55228 7.49998 4C7.49998 3.44772 7.05227 3 6.49998 3C5.9477 3 5.49998 3.44772 5.49998 4C5.49998 4.55228 5.9477 5 6.49998 5Z" fill="black" style="fill:black;fill-opacity:1;"/>
<path d="M9.49998 5C10.0523 5 10.5 4.55228 10.5 4C10.5 3.44772 10.0523 3 9.49998 3C8.9477 3 8.49998 3.44772 8.49998 4C8.49998 4.55228 8.9477 5 9.49998 5Z" fill="black" style="fill:black;fill-opacity:1;"/>
<path d="M15.9041 4.3325C15.871 4.25256 15.815 4.18423 15.743 4.13617C15.6711 4.08811 15.5865 4.06247 15.5 4.0625H14.5C12.395 4.0625 10.6395 5.0635 9.91758 6.5132C9.69281 6.21773 9.40279 5.97821 9.07017 5.81332C8.73755 5.64843 8.37133 5.56264 8.00008 5.56264C7.62883 5.56264 7.26261 5.64843 6.92999 5.81332C6.59737 5.97821 6.30736 6.21773 6.08258 6.5132C5.36048 5.0635 3.60498 4.0625 1.49998 4.0625H0.499981C0.413415 4.06247 0.328786 4.08812 0.256808 4.13621C0.184829 4.1843 0.128737 4.25267 0.0956315 4.33265C0.062526 4.41264 0.0538958 4.50065 0.0708334 4.58554C0.087771 4.67043 0.129515 4.74839 0.190781 4.80955L0.241681 4.86C0.678116 5.21269 0.993543 5.69284 1.14394 6.23344C1.29433 6.77403 1.27218 7.3481 1.08058 7.8755C1.06121 7.94078 1.05735 8.00968 1.0693 8.07671C1.08124 8.14375 1.10867 8.20707 1.14939 8.26164C1.19012 8.31621 1.24301 8.36052 1.30388 8.39105C1.36474 8.42158 1.43189 8.43749 1.49998 8.4375C1.6951 8.42198 1.89135 8.44616 2.07686 8.50861C2.26238 8.57105 2.43331 8.67045 2.57933 8.8008C3.06848 9.2915 3.06503 10.2444 3.06273 10.8748V10.9998C3.0627 11.0572 3.07398 11.1141 3.09594 11.1672C3.11789 11.2203 3.15009 11.2685 3.19069 11.3092C3.2313 11.3498 3.27951 11.3821 3.33258 11.4041C3.38564 11.4261 3.44253 11.4375 3.49998 11.4375H5.56248V11.5C5.56248 12.1465 5.81929 12.7665 6.27641 13.2236C6.73353 13.6807 7.35352 13.9375 7.99998 13.9375C8.64645 13.9375 9.26643 13.6807 9.72355 13.2236C10.1807 12.7665 10.4375 12.1465 10.4375 11.5V11.4375H12.5C12.616 11.4375 12.7273 11.3914 12.8093 11.3094C12.8914 11.2273 12.9375 11.116 12.9375 11V10.875C12.9352 10.2446 12.9317 9.29175 13.4209 8.80105C13.5669 8.67069 13.7377 8.57126 13.9232 8.50877C14.1087 8.44629 14.3049 8.42204 14.5 8.4375C14.5681 8.43749 14.6352 8.42158 14.6961 8.39105C14.7569 8.36052 14.8098 8.31621 14.8506 8.26164C14.8913 8.20707 14.9187 8.14375 14.9307 8.07671C14.9426 8.00968 14.9387 7.94078 14.9194 7.8755C14.7279 7.34828 14.7057 6.77443 14.856 6.23401C15.0063 5.69359 15.3215 5.21355 15.7576 4.86085L15.8093 4.80935C15.8705 4.74816 15.9122 4.67019 15.929 4.58531C15.9459 4.50043 15.9373 4.41245 15.9041 4.3325ZM7.99998 6.4375C8.41424 6.43798 8.81139 6.60275 9.10431 6.89567C9.39723 7.18859 9.562 7.58575 9.56248 8V8.0625H6.43748V8C6.43796 7.58575 6.60273 7.18859 6.89565 6.89567C7.18857 6.60275 7.58573 6.43798 7.99998 6.4375ZM6.43748 8.9375H9.56248V10.5625H6.43748V8.9375ZM3.93713 10.5625C3.92823 9.833 3.84518 8.83155 3.19908 8.1831C2.88432 7.87431 2.48012 7.67276 2.04408 7.6072C2.14348 7.14734 2.14425 6.67164 2.04636 6.21146C1.94847 5.75128 1.75414 5.31708 1.47618 4.9375H1.49998C3.77808 4.9375 5.56248 6.2825 5.56248 8V10.5625H3.93713ZM9.56248 11.5C9.56248 11.9144 9.39786 12.3118 9.10484 12.6049C8.81181 12.8979 8.41438 13.0625 7.99998 13.0625C7.58558 13.0625 7.18815 12.8979 6.89513 12.6049C6.6021 12.3118 6.43748 11.9144 6.43748 11.5V11.4375H9.56248V11.5ZM13.9559 7.6072C13.5198 7.67276 13.1156 7.87431 12.8009 8.1831C12.1548 8.83155 12.0717 9.8331 12.0628 10.5625H10.4375V8C10.4375 6.2827 12.2219 4.9375 14.5 4.9375H14.524C14.246 5.31705 14.0516 5.75124 13.9537 6.21143C13.8557 6.67161 13.8565 7.14733 13.9559 7.6072Z" fill="black" style="fill:black;fill-opacity:1;"/>
</svg>
