<svg width="16" height="16" viewBox="0 0 16 16" fill="none" xmlns="http://www.w3.org/2000/svg">
  <path fill-rule="evenodd" clip-rule="evenodd" d="M10.5449 7.8213C10.7962 7.58904 10.9969 7.30739 11.1344 6.994C11.2718 6.68061 11.3431 6.34221 11.3438 6V5.5C11.343 4.8372 11.0793 4.20177 10.6107 3.7331C10.142 3.26442 9.50655 3.00078 8.84375 3V1.5H7.84375V3H6.84375V1.5H5.84375V3H4.84375V13H5.84375V14.5H6.84375V13H8.34375V14.5H9.34375V13C10.0066 12.9992 10.642 12.7356 11.1107 12.2669C11.5793 11.7982 11.843 11.1628 11.8438 10.5V10C11.8422 9.55382 11.7208 9.11626 11.4923 8.73301C11.2638 8.34976 10.9366 8.0349 10.5449 7.8213ZM8.84375 4H5.84375V7.5H8.84375C9.24144 7.49956 9.62272 7.34139 9.90393 7.06018C10.1851 6.77897 10.3433 6.39769 10.3438 6V5.5C10.3433 5.10231 10.1851 4.72103 9.90393 4.43982C9.62272 4.15861 9.24144 4.00044 8.84375 4ZM10.4039 11.5602C10.6851 11.279 10.8433 10.8977 10.8438 10.5V10C10.8433 9.60231 10.6851 9.22103 10.4039 8.93982C10.1227 8.65861 9.74144 8.50044 9.34375 8.5H5.84375V12H9.34375C9.74144 11.9996 10.1227 11.8414 10.4039 11.5602Z" fill="black" style="fill:black;fill-opacity:1;"/>
</svg>
