<svg width="16" height="16" viewBox="0 0 16 16" fill="none" xmlns="http://www.w3.org/2000/svg">
  <path d="M9.99998 10H13V9H9.99998V10Z" fill="black" style="fill:black;fill-opacity:1;"/>
  <path d="M12 14H15V13H12V14Z" fill="black" style="fill:black;fill-opacity:1;"/>
  <path d="M11 12H14V11H11V12Z" fill="black" style="fill:black;fill-opacity:1;"/>
  <path d="M8.50143 10C8.49787 9.5781 8.3853 9.16428 8.17466 8.79871C7.96402 8.43313 7.66245 8.12822 7.29923 7.91355L11 1.5L10.1345 1L6.34663 7.563C5.88166 7.45909 5.39806 7.47343 4.94006 7.6047C4.48207 7.73598 4.0643 7.98 3.72498 8.31445C1.85318 10.12 1.99813 14.3411 2.00498 14.52C2.01015 14.6491 2.0651 14.7712 2.15831 14.8607C2.25153 14.9502 2.37576 15.0001 2.50498 15H10.0006C10.1055 15 10.2078 14.967 10.2929 14.9056C10.3781 14.8443 10.4417 14.7577 10.4749 14.6581C10.5081 14.5586 10.5091 14.4511 10.4778 14.3509C10.4465 14.2507 10.3845 14.163 10.3006 14.1C8.53073 12.772 8.50143 10.0268 8.50143 10ZM5.96498 8.49855C6.36517 8.50293 6.74825 8.66144 7.03454 8.9411C7.32083 9.22076 7.48827 9.60003 7.50203 10C7.50203 10.019 7.50298 10.104 7.51043 10.2344L4.56073 8.9226C4.75501 8.76239 4.97921 8.64239 5.22028 8.56959C5.46135 8.4968 5.71449 8.47265 5.96498 8.49855ZM7.72468 14C7.32513 13.593 7.07049 13.066 6.99998 12.5H5.99998C6.03584 13.0322 6.20213 13.5473 6.48418 14H5.37253C5.16689 13.3511 5.04176 12.6794 4.99998 12H3.99998C4.03226 12.6774 4.14389 13.3486 4.33258 14H2.99998C3.01548 13.0818 3.14498 11.054 3.90133 9.72365L7.66783 11.3987C7.84899 12.3383 8.23499 13.2265 8.79838 14H7.72468Z" fill="black" style="fill:black;fill-opacity:1;"/>
</svg>
