<svg width="16" height="16" viewBox="0 0 16 16" fill="none" xmlns="http://www.w3.org/2000/svg">
  <path d="M10 10H13V9H10V10Z" fill="black" style="fill:black;fill-opacity:1;"/>
  <path d="M12 14H15V13H12V14Z" fill="black" style="fill:black;fill-opacity:1;"/>
  <path d="M11 12H14V11H11V12Z" fill="black" style="fill:black;fill-opacity:1;"/>
  <path d="M8.50146 10C8.4979 9.5781 8.38533 9.16428 8.17469 8.79871C7.96405 8.43313 7.66248 8.12822 7.29926 7.91355L11 1.5L10.1346 1L6.34666 7.563C5.88169 7.45909 5.39809 7.47343 4.94009 7.6047C4.4821 7.73598 4.06433 7.98 3.72501 8.31445C1.85321 10.12 1.99816 14.3411 2.00501 14.52C2.01018 14.6491 2.06513 14.7712 2.15834 14.8607C2.25156 14.9502 2.3758 15.0001 2.50501 15H10.0006C10.1056 15 10.2078 14.967 10.293 14.9056C10.3781 14.8443 10.4418 14.7577 10.475 14.6581C10.5081 14.5586 10.5092 14.4511 10.4779 14.3509C10.4466 14.2507 10.3846 14.163 10.3006 14.1C8.53076 12.772 8.50146 10.0268 8.50146 10ZM5.96501 8.49855C6.3652 8.50293 6.74828 8.66144 7.03457 8.9411C7.32086 9.22076 7.4883 9.60003 7.50206 10C7.50206 10.019 7.50301 10.104 7.51046 10.2344L4.56076 8.9226C4.75504 8.76239 4.97924 8.64239 5.22031 8.56959C5.46138 8.4968 5.71452 8.47265 5.96501 8.49855ZM7.72471 14C7.32516 13.593 7.07052 13.066 7.00001 12.5H6.00001C6.03587 13.0322 6.20216 13.5473 6.48421 14H5.37256C5.16692 13.3511 5.04179 12.6794 5.00001 12H4.00001C4.03229 12.6774 4.14392 13.3486 4.33261 14H3.00001C3.01551 13.0818 3.14501 11.054 3.90136 9.72365L7.66786 11.3987C7.84902 12.3383 8.23502 13.2265 8.79841 14H7.72471Z" fill="black" style="fill:black;fill-opacity:1;"/>
</svg>
