<svg width="16" height="16" viewBox="0 0 16 16" fill="none" xmlns="http://www.w3.org/2000/svg">
  <path d="M14.2856 12.5H13.2856V11.5H13.7856V9.5H11.7856V10H10.7856V9C10.7856 8.86739 10.8383 8.74021 10.9321 8.64645C11.0259 8.55268 11.153 8.5 11.2856 8.5H14.2856C14.4182 8.5 14.5454 8.55268 14.6392 8.64645C14.733 8.74021 14.7856 8.86739 14.7856 9V12C14.7856 12.1326 14.733 12.2598 14.6392 12.3536C14.5454 12.4473 14.4182 12.5 14.2856 12.5Z" fill="black" style="fill:black;fill-opacity:1;"/>
  <path d="M11.7856 15H8.78564C8.65303 15 8.52586 14.9473 8.43209 14.8536C8.33832 14.7598 8.28564 14.6326 8.28564 14.5V11.5C8.28564 11.3674 8.33832 11.2402 8.43209 11.1464C8.52586 11.0527 8.65303 11 8.78564 11H11.7856C11.9182 11 12.0454 11.0527 12.1392 11.1464C12.233 11.2402 12.2856 11.3674 12.2856 11.5V14.5C12.2856 14.6326 12.233 14.7598 12.1392 14.8536C12.0454 14.9473 11.9182 15 11.7856 15ZM9.28564 14H11.2856V12H9.28564V14Z" fill="black" style="fill:black;fill-opacity:1;"/>
  <path d="M7.28564 9.92895C6.92429 9.83482 6.59658 9.64126 6.33971 9.37023C6.08285 9.09921 5.90713 8.76158 5.83251 8.39571C5.7579 8.02983 5.78738 7.65036 5.9176 7.30039C6.04782 6.95043 6.27357 6.64399 6.5692 6.41588C6.86484 6.18778 7.21852 6.04714 7.59007 6.00995C7.96162 5.97276 8.33615 6.0405 8.67114 6.20548C9.00612 6.37046 9.28813 6.62607 9.48514 6.94328C9.68215 7.26049 9.78625 7.62659 9.78564 8H10.7856C10.7862 7.4279 10.6232 6.86756 10.3158 6.38506C10.0084 5.90256 9.56949 5.51801 9.05075 5.27675C8.53201 5.0355 7.9551 4.9476 7.38805 5.02342C6.821 5.09924 6.28745 5.33562 5.85031 5.70469C5.41318 6.07375 5.09069 6.56012 4.92086 7.10643C4.75104 7.65274 4.74097 8.23622 4.89183 8.78806C5.0427 9.33991 5.34821 9.83712 5.77234 10.2211C6.19647 10.605 6.72155 10.8596 7.28564 10.955V9.92895Z" fill="black" style="fill:black;fill-opacity:1;"/>
  <path d="M14.2306 6.775L13.0756 7.79L12.3656 7.08L13.5706 6.02L12.3906 3.98L10.6706 4.56C10.2677 4.22464 9.81139 3.95928 9.32063 3.775L8.96564 2H6.60564L6.25064 3.775C5.75594 3.95414 5.29711 4.21995 4.89564 4.56L3.18063 3.98L2.00064 6.02L3.36064 7.215C3.26813 7.73257 3.26813 8.26243 3.36064 8.78L2.00064 9.98L3.18063 12.02L4.90063 11.44C5.30354 11.7754 5.75988 12.0407 6.25064 12.225L6.60564 14H7.28563V15H6.60564C6.37442 14.9997 6.15043 14.9194 5.97176 14.7726C5.7931 14.6259 5.67079 14.4218 5.62564 14.195L5.37064 12.935C5.14426 12.8246 4.92545 12.6993 4.71563 12.56L3.50063 12.97C3.39732 13.0036 3.28929 13.0205 3.18063 13.02C3.005 13.0212 2.83222 12.9755 2.68016 12.8876C2.52809 12.7997 2.40225 12.6728 2.31564 12.52L1.13564 10.48C1.01893 10.2795 0.975561 10.0447 1.01296 9.81572C1.05036 9.58677 1.1662 9.37794 1.34064 9.225L2.30064 8.385C2.29064 8.255 2.28564 8.13 2.28564 8C2.28564 7.87 2.29564 7.745 2.30564 7.62L1.34064 6.775C1.1662 6.62206 1.05036 6.41324 1.01296 6.18428C0.975561 5.95533 1.01893 5.72049 1.13564 5.52L2.31564 3.48C2.40225 3.3272 2.52809 3.20029 2.68016 3.1124C2.83222 3.0245 3.005 2.97879 3.18063 2.98C3.28929 2.9795 3.39732 2.99638 3.50063 3.03L4.71064 3.44C4.92217 3.30065 5.14264 3.17538 5.37064 3.065L5.62564 1.805C5.67079 1.57824 5.7931 1.37411 5.97176 1.22735C6.15043 1.08059 6.37442 1.00025 6.60564 1H8.96564C9.19685 1.00025 9.42084 1.08059 9.59951 1.22735C9.77817 1.37411 9.90048 1.57824 9.94563 1.805L10.2006 3.065C10.427 3.17541 10.6458 3.30068 10.8556 3.44L12.0706 3.03C12.174 2.99638 12.282 2.9795 12.3906 2.98C12.5663 2.97879 12.739 3.0245 12.8911 3.1124C13.0432 3.20029 13.169 3.3272 13.2556 3.48L14.4356 5.52C14.5523 5.72049 14.5957 5.95533 14.5583 6.18428C14.5209 6.41324 14.4051 6.62206 14.2306 6.775Z" fill="black" style="fill:black;fill-opacity:1;"/>
</svg>
