<svg width="16" height="16" viewBox="0 0 16 16" fill="none" xmlns="http://www.w3.org/2000/svg">
  <path d="M15.8535 9.64645L14.3535 8.14645C14.1582 7.95115 13.8418 7.95115 13.6464 8.14645L8.99995 12.7929V15H11.207L15.8535 10.3535C16.0488 10.1582 16.0488 9.8418 15.8535 9.64645ZM10.7929 14H10V13.207L12.5 10.707L13.2929 11.5L10.7929 14ZM14 10.7929L13.207 9.99995L14 9.207L14.7929 9.99995L14 10.7929Z" fill="black" style="fill:black;fill-opacity:1;"/>
  <path d="M8 11C6.31785 11 5 9.68215 5 8C5 6.31785 6.31785 5 8 5C9.68215 5 11 6.31785 11 8C11 9.68215 9.68215 11 8 11ZM8 6C6.85985 6 6 6.85985 6 8C6 9.14015 6.85985 10 8 10C9.14015 10 10 9.14015 10 8C10 6.85985 9.14015 6 8 6Z" fill="black" style="fill:black;fill-opacity:1;"/>
  <path d="M13.7737 6.00025L14.6398 5.50025L13.4721 3.47805C13.2895 3.16165 12.9554 2.9778 12.606 2.9778C12.4993 2.9778 12.3913 2.9949 12.2857 3.0308L11.0686 3.4424C10.8596 3.3018 10.6406 3.1748 10.4126 3.06325L10.1608 1.80395C10.0673 1.3364 9.65689 1 9.18019 1H6.81985C6.34315 1 5.93275 1.33645 5.83925 1.80395L5.5874 3.06325C5.3579 3.17555 5.13429 3.29785 4.92405 3.43995L3.71435 3.03075C3.60875 2.99485 3.50075 2.97775 3.39405 2.97775C3.0447 2.97775 2.7106 3.1616 2.52795 3.478L1.34765 5.52195C1.10935 5.9348 1.19555 6.45845 1.5536 6.77315L2.51905 7.62155C2.5105 7.7473 2.5 7.8723 2.5 7.99995C2.5 8.12885 2.50515 8.2563 2.5139 8.38275L1.55355 9.22675C1.1955 9.54145 1.10935 10.0652 1.3476 10.478L2.5279 12.5219C2.7105 12.8383 3.0446 13.0222 3.394 13.0222C3.5007 13.0222 3.60885 13.005 3.7143 12.9691L4.93135 12.5576C5.14035 12.6984 5.35934 12.8251 5.58735 12.9367L5.8392 14.196C5.9327 14.6636 6.3431 15 6.8198 15H8V14H6.8198L6.4647 12.2246C5.97705 12.0465 5.5134 11.7715 5.1173 11.4389L3.3939 12.0219L2.2137 9.97795L3.57635 8.78045C3.48445 8.25895 3.48065 7.73895 3.5728 7.2165L2.21365 6.0219L3.3942 3.97795L5.1076 4.55755C5.5092 4.2194 5.97235 3.955 6.46465 3.7753L6.81975 1.9999H9.1801L9.5352 3.7753C10.0228 3.9533 10.4863 4.2284 10.8826 4.56095L12.606 3.97795L13.7737 6.00025Z" fill="black" style="fill:black;fill-opacity:1;"/>
</svg>
