<svg width="16" height="16" viewBox="0 0 16 16" fill="none" xmlns="http://www.w3.org/2000/svg">
  <path d="M5.27775 4.50003L4.50008 5.2777L10.7224 11.5L11.5001 10.7224L5.27775 4.50003Z" fill="black" style="fill:black;fill-opacity:1;"/>
  <path d="M8.00001 1.00001C7.07916 0.994289 6.16634 1.17144 5.31447 1.5212C4.46261 1.87095 3.68866 2.38635 3.03751 3.03751C2.38635 3.68866 1.87095 4.46261 1.5212 5.31447C1.17144 6.16634 0.994289 7.07916 1.00001 8.00001C0.994289 8.92086 1.17144 9.83369 1.5212 10.6856C1.87095 11.5374 2.38635 12.3114 3.03751 12.9625C3.68866 13.6137 4.46261 14.1291 5.31447 14.4788C6.16634 14.8286 7.07916 15.0057 8.00001 15C8.92086 15.0057 9.83369 14.8286 10.6856 14.4788C11.5374 14.1291 12.3114 13.6137 12.9625 12.9625C13.6137 12.3114 14.1291 11.5374 14.4788 10.6856C14.8286 9.83369 15.0057 8.92086 15 8.00001C15.0057 7.07916 14.8286 6.16634 14.4788 5.31447C14.1291 4.46261 13.6137 3.68866 12.9625 3.03751C12.3114 2.38635 11.5374 1.87095 10.6856 1.5212C9.83369 1.17144 8.92086 0.994289 8.00001 1.00001ZM8.00001 14C6.81332 14 5.65329 13.6481 4.66659 12.9888C3.6799 12.3295 2.91086 11.3925 2.45674 10.2961C2.00261 9.19976 1.88379 7.99336 2.1153 6.82947C2.34681 5.66558 2.91826 4.59649 3.75737 3.75737C4.59649 2.91826 5.66558 2.34681 6.82947 2.1153C7.99336 1.88379 9.19976 2.00261 10.2961 2.45674C11.3925 2.91086 12.3295 3.6799 12.9888 4.66659C13.6481 5.65329 14 6.81332 14 8.00001C13.9954 9.58988 13.3617 11.1133 12.2375 12.2375C11.1133 13.3617 9.58988 13.9954 8.00001 14Z" fill="black" style="fill:black;fill-opacity:1;"/>
</svg>
