<svg width="16" height="16" viewBox="0 0 16 16" fill="none" xmlns="http://www.w3.org/2000/svg">
  <path d="M8.00001 1.00001C7.07916 0.994302 6.16634 1.17146 5.31449 1.52123C4.46263 1.87099 3.68869 2.38639 3.03754 3.03754C2.38639 3.68869 1.87099 4.46263 1.52123 5.31449C1.17146 6.16634 0.994302 7.07916 1.00001 8.00001C0.994302 8.92086 1.17146 9.83368 1.52123 10.6855C1.87099 11.5374 2.38639 12.3113 3.03754 12.9625C3.68869 13.6136 4.46263 14.129 5.31449 14.4788C6.16634 14.8286 7.07916 15.0057 8.00001 15C8.92086 15.0057 9.83368 14.8286 10.6855 14.4788C11.5374 14.129 12.3113 13.6136 12.9625 12.9625C13.6136 12.3113 14.129 11.5374 14.4788 10.6855C14.8286 9.83368 15.0057 8.92086 15 8.00001C15.0057 7.07916 14.8286 6.16634 14.4788 5.31449C14.129 4.46263 13.6136 3.68869 12.9625 3.03754C12.3113 2.38639 11.5374 1.87099 10.6855 1.52123C9.83368 1.17146 8.92086 0.994302 8.00001 1.00001ZM10.7225 11.5L4.50001 5.27786L5.27786 4.50001L11.5 10.7224L10.7225 11.5Z" fill="black" style="fill:black;fill-opacity:1;"/>
</svg>
