<svg width="16" height="16" viewBox="0 0 16 16" fill="none" xmlns="http://www.w3.org/2000/svg">
  <path d="M6.50009 14.5C6.57338 14.5 6.64578 14.4838 6.71214 14.4527C6.77851 14.4216 6.83721 14.3763 6.88409 14.32L11.8841 8.31996C11.9589 8.23011 11.9999 8.11689 11.9999 7.99996C11.9999 7.88303 11.9589 7.7698 11.8841 7.67996L6.88409 1.67996C6.8183 1.60107 6.72981 1.54436 6.63066 1.51753C6.5315 1.49071 6.42649 1.49507 6.3299 1.53004C6.23331 1.565 6.14984 1.62887 6.09083 1.71294C6.03182 1.79702 6.00013 1.89724 6.00009 1.99996V5.51621C2.49639 5.74766 0.500087 8.44621 0.500087 13.0001C0.500087 13.105 0.533106 13.2073 0.594466 13.2924C0.655827 13.3775 0.742417 13.4412 0.841973 13.4744C0.941529 13.5076 1.049 13.5086 1.14917 13.4773C1.24934 13.446 1.33712 13.384 1.40009 13.3001C2.81099 11.4189 4.09569 10.6269 6.00009 10.5143V14C6.00009 14.1326 6.05277 14.2597 6.14653 14.3535C6.2403 14.4473 6.36748 14.5 6.50009 14.5ZM10.8493 7.99996L7.00009 12.619V9.99996C7.00009 9.86735 6.94741 9.74017 6.85364 9.6464C6.75987 9.55264 6.6327 9.49996 6.50009 9.49996C5.58072 9.46446 4.66461 9.62897 3.81504 9.98213C2.96546 10.3353 2.20268 10.8687 1.57939 11.5454C1.95689 8.27761 3.67074 6.49996 6.50009 6.49996C6.6327 6.49996 6.75987 6.44728 6.85364 6.35351C6.94741 6.25974 7.00009 6.13257 7.00009 5.99996V3.38086L10.8493 7.99996Z" fill="black" style="fill:black;fill-opacity:1;"/>
  <path d="M10.2681 14.4591L15.3842 8.31996C15.459 8.23011 15.5 8.11689 15.5 7.99996C15.5 7.88303 15.459 7.7698 15.3842 7.67996L10.2682 1.53956L9.50009 2.17996L14.3493 7.99996L9.50009 13.819L10.2681 14.4591Z" fill="black" style="fill:black;fill-opacity:1;"/>
</svg>
