<svg width="16" height="16" viewBox="0 0 16 16" fill="none" xmlns="http://www.w3.org/2000/svg">
  <path d="M10 7.5899L8.705 6.295L8 7L10 9L13 6L12.295 5.295L10 7.5899Z" fill="black" style="fill:black;fill-opacity:1;"/>
  <path d="M5 9H4V10H5V9Z" fill="black" style="fill:black;fill-opacity:1;"/>
  <path d="M6 4.5H3.5V5.5H5.5V6.5H4V8H5V7.5H6C6.2761 7.5 6.5 7.2761 6.5 7V5C6.5 4.7239 6.2761 4.5 6 4.5Z" fill="black" style="fill:black;fill-opacity:1;"/>
  <path d="M8.8679 15L8 14.5L10 11H13C13.5535 11 14 10.5537 14 10V4C14 3.4463 13.5535 3 13 3H3C2.44645 3 2 3.4463 2 4V10C2 10.5537 2.44645 11 3 11H7.5V12H3C1.89535 12 1 11.105 1 10V4C1 2.89455 1.89535 2 3 2H13C14.1047 2 15 2.89455 15 4V10C15 11.105 14.1047 12 13 12H10.5823L8.8679 15Z" fill="black" style="fill:black;fill-opacity:1;"/>
</svg>
