<svg width="16" height="16" viewBox="0 0 16 16" fill="none" xmlns="http://www.w3.org/2000/svg">
<path d="M10.5 12H5.49996V13H10.5V12Z" fill="black" style="fill:black;fill-opacity:1;"/>
<path d="M9.49996 14H6.49996V15H9.49996V14Z" fill="black" style="fill:black;fill-opacity:1;"/>
<path d="M7.99996 1C6.67388 1 5.40211 1.52678 4.46443 2.46447C3.52675 3.40215 2.99996 4.67392 2.99996 6C2.96615 6.72667 3.10535 7.45098 3.40611 8.11335C3.70687 8.77572 4.1606 9.35722 4.72996 9.81C5.22996 10.275 5.49996 10.54 5.49996 11H6.49996C6.49996 10.08 5.94496 9.565 5.40496 9.07C4.93764 8.71213 4.5652 8.24514 4.32025 7.70992C4.07531 7.1747 3.96533 6.58759 3.99996 6C3.99996 4.93913 4.42139 3.92172 5.17153 3.17157C5.92168 2.42143 6.9391 2 7.99996 2C9.06083 2 10.0782 2.42143 10.8284 3.17157C11.5785 3.92172 12 4.93913 12 6C12.034 6.58802 11.9233 7.17541 11.6774 7.71067C11.4316 8.24592 11.0582 8.71267 10.59 9.07C10.055 9.57 9.49996 10.07 9.49996 11H10.5C10.5 10.54 10.765 10.275 11.27 9.805C11.8389 9.35299 12.2925 8.77235 12.5932 8.11085C12.894 7.44935 13.0334 6.72589 13 6C13 5.34339 12.8706 4.69321 12.6194 4.08658C12.3681 3.47995 11.9998 2.92876 11.5355 2.46447C11.0712 2.00017 10.52 1.63188 9.91338 1.3806C9.30675 1.12933 8.65657 1 7.99996 1Z" fill="black" style="fill:black;fill-opacity:1;"/>
</svg>
