<svg width="16" height="16" viewBox="0 0 16 16" fill="none" xmlns="http://www.w3.org/2000/svg">
  <path d="M4.5 10.5H1.5C0.9486 10.5 0.5 10.0514 0.5 9.5V6.5C0.5 5.9486 0.9486 5.5 1.5 5.5H4.5C5.0514 5.5 5.5 5.9486 5.5 6.5V9.5C5.5 10.0514 5.0514 10.5 4.5 10.5ZM1.5 6.5V9.5H4.5V6.5H1.5Z" fill="black" style="fill:black;fill-opacity:1;"/>
  <path d="M8 15C7.8191 15 7.63975 14.9931 7.46215 14.9797C5.28575 14.8141 3.2816 13.614 2.1007 11.7696L2.943 11.2304C3.95535 12.8118 5.6731 13.8406 7.53795 13.9825C7.6903 13.9941 7.84445 14 8 14V15Z" fill="black" style="fill:black;fill-opacity:1;"/>
  <path d="M14 15H10C9.4486 15 9 14.5514 9 14V10C9 9.4486 9.4486 9 10 9H14C14.5514 9 15 9.4486 15 10V14C15 14.5514 14.5514 15 14 15ZM10 10V14H14V10H10Z" fill="black" style="fill:black;fill-opacity:1;"/>
  <path d="M13.6512 6C13.8782 6.64085 14 7.31055 14 8H15C15 7.31545 14.9007 6.64575 14.708 6H13.6512Z" fill="black" style="fill:black;fill-opacity:1;"/>
  <path d="M13.5 5H12C11.4486 5 11 4.5514 11 4V2.5C11 1.9486 11.4486 1.5 12 1.5H13.5C14.0514 1.5 14.5 1.9486 14.5 2.5V4C14.5 4.5514 14.0514 5 13.5 5ZM12 2.5V4H13.5V2.5H12Z" fill="black" style="fill:black;fill-opacity:1;"/>
  <path d="M10 1.29175C9.35425 1.0991 8.68455 1 8 1C5.6012 1 3.39585 2.2075 2.10085 4.2302L2.9429 4.7695C4.05335 3.03535 5.9439 1.99995 8.00005 1.99995C8.6894 1.99995 9.35945 2.1218 10 2.34885L10 1.29175Z" fill="black" style="fill:black;fill-opacity:1;"/>
</svg>
