<svg width="16" height="16" viewBox="0 0 16 16" fill="none" xmlns="http://www.w3.org/2000/svg">
  <path d="M14.5 2.5L12.6875 4.5H14.5V5.5H11.5V4.5L13.375 2.5H11.5V1.5H14.5V2.5ZM14.3535 9.6465C14.4473 9.74025 14.5 9.86745 14.5 10V11.5C14.5 11.7761 14.2764 12 14 12H10.5V12.5C10.5 13.8784 9.3784 15 8 15C6.6216 15 5.5 13.8784 5.5 12.5V12H2C1.72365 12 1.5 11.7761 1.5 11.5V10C1.5 9.86745 1.55275 9.74025 1.6465 9.6465L3 8.293V6.50005C3 3.9119 4.97705 1.77715 7.5 1.52545V0.5H8.5V1.5254C9.02915 1.57815 9.53205 1.71805 10 1.92335V3C9.41085 2.65795 8.7289 2.5 8 2.5C5.79445 2.5 4 4.29445 4 6.5V8.5C4 8.63255 3.94725 8.75975 3.8535 8.8535L2.5 10.207V11H13.5V10.207L12.1465 8.8535C12.0527 8.75975 12 8.63255 12 8.5V7H13V8.29295L14.3535 9.6465ZM9.5 12H6.5V12.5C6.5 13.3272 7.17285 14 8 14C8.82715 14 9.5 13.3272 9.5 12.5V12Z" fill="black" style="fill:black;fill-opacity:1;"/>
</svg>
