<svg width="16" height="16" viewBox="0 0 16 16" fill="none" xmlns="http://www.w3.org/2000/svg">
  <path d="M3.85 2.34997C3.2765 2.79006 2.77106 3.31235 2.35 3.89997L3.15 4.49997C3.51723 3.99069 3.95493 3.53615 4.45 3.14997L3.85 2.34997Z" fill="black" style="fill:black;fill-opacity:1;"/>
  <path d="M2.3 6.14997L1.35 5.84997C1.10848 6.54065 0.990021 7.26835 1 7.99997H2C1.99797 7.37103 2.09932 6.74604 2.3 6.14997Z" fill="black" style="fill:black;fill-opacity:1;"/>
  <path d="M1.35 10.2C1.58188 10.8972 1.91912 11.5548 2.35 12.15L3.15 11.55C2.78854 11.0439 2.50224 10.4881 2.3 9.89997L1.35 10.2Z" fill="black" style="fill:black;fill-opacity:1;"/>
  <path d="M3.9 13.65C4.49517 14.0809 5.15278 14.4181 5.85 14.65L6.15 13.7C5.56187 13.4977 5.00611 13.2114 4.5 12.85L3.9 13.65Z" fill="black" style="fill:black;fill-opacity:1;"/>
  <path d="M5.85 1.34997L6.15 2.29997C6.74607 2.09929 7.37106 1.99794 8 1.99997V0.999972C7.26838 0.98999 6.54068 1.10845 5.85 1.34997Z" fill="black" style="fill:black;fill-opacity:1;"/>
  <path d="M12.1 13.65C12.6889 13.211 13.2111 12.6889 13.65 12.1L12.85 11.5C12.4782 12.0219 12.0219 12.4781 11.5 12.85L12.1 13.65Z" fill="black" style="fill:black;fill-opacity:1;"/>
  <path d="M13.7 9.84997L14.65 10.15C14.8675 9.4534 14.9853 8.72956 15 7.99997H14C14.002 8.62891 13.9007 9.25391 13.7 9.84997Z" fill="black" style="fill:black;fill-opacity:1;"/>
  <path d="M14.6 5.79997C14.3681 5.10275 14.0309 4.44514 13.6 3.84997L12.8 4.44997C13.1615 4.95608 13.4478 5.51184 13.65 6.09997L14.6 5.79997Z" fill="black" style="fill:black;fill-opacity:1;"/>
  <path d="M12.05 2.29997C11.4548 1.86909 10.7972 1.53185 10.1 1.29997L9.8 2.24997C10.3881 2.45221 10.9439 2.73851 11.45 3.09997L12.05 2.29997Z" fill="black" style="fill:black;fill-opacity:1;"/>
  <path d="M10.15 14.65L9.85 13.7C9.25394 13.9007 8.62894 14.002 8 14V15C8.7267 14.9567 9.44709 14.8394 10.15 14.65Z" fill="black" style="fill:black;fill-opacity:1;"/>
</svg>
