<svg width="16" height="16" viewBox="0 0 16 16" fill="none" xmlns="http://www.w3.org/2000/svg">
  <path d="M14.44 15.0001C14.3511 15.0013 14.2634 14.9788 14.186 14.9348C14.1087 14.8909 14.0445 14.8271 14 14.7501C13.3341 13.6156 12.3849 12.6736 11.2455 12.0162C10.1061 11.3589 8.81543 11.0087 7.5 11.0001V14.0001C7.49951 14.0988 7.46981 14.1951 7.41464 14.277C7.35947 14.3589 7.28131 14.4226 7.19 14.4601C7.09894 14.4984 6.99859 14.5088 6.90159 14.4901C6.8046 14.4714 6.71531 14.4244 6.645 14.3551L0.645 8.35507C0.598136 8.30859 0.560939 8.25329 0.535554 8.19236C0.51017 8.13143 0.497101 8.06608 0.497101 8.00007C0.497101 7.93406 0.51017 7.86871 0.535554 7.80778C0.560939 7.74685 0.598136 7.69155 0.645 7.64507L6.645 1.64507C6.71531 1.57569 6.8046 1.52869 6.90159 1.51001C6.99859 1.49132 7.09894 1.50178 7.19 1.54007C7.28131 1.57758 7.35947 1.64128 7.41464 1.72314C7.46981 1.805 7.49951 1.90136 7.5 2.00007V5.05507C9.5686 5.32076 11.47 6.32954 12.8499 7.8934C14.2298 9.45725 14.9939 11.4695 15 13.5551C14.9988 13.8894 14.9771 14.2234 14.935 14.5551C14.9225 14.6591 14.8777 14.7566 14.8068 14.8337C14.7359 14.9109 14.6426 14.9638 14.54 14.9851L14.44 15.0001ZM7.25 10.0001C8.5252 9.98176 9.78918 10.2405 10.9546 10.7585C12.12 11.2764 13.1591 12.0413 14 13.0001C13.8496 11.1863 13.0578 9.48539 11.7667 8.20256C10.4756 6.91973 8.76974 6.13887 6.955 6.00007C6.83034 5.98881 6.71444 5.93119 6.63019 5.83862C6.54595 5.74604 6.49949 5.62524 6.5 5.50007V3.20507L1.705 8.00007L6.5 12.7951V10.5001C6.5 10.3675 6.55268 10.2403 6.64645 10.1465C6.74021 10.0527 6.86739 10.0001 7 10.0001H7.27H7.25Z" fill="black" style="fill:black;fill-opacity:1;"/>
</svg>
