<svg width="16" height="16" viewBox="0 0 16 16" fill="none" xmlns="http://www.w3.org/2000/svg">
  <path d="M6 5.00004H3.39C4.03668 4.0062 4.98721 3.24796 6.09991 2.83833C7.21262 2.4287 8.4279 2.38963 9.56462 2.72693C10.7013 3.06424 11.6986 3.75986 12.4078 4.7101C13.117 5.66035 13.5001 6.81433 13.5 8.00004H14.5C14.5014 6.66278 14.0903 5.35765 13.3227 4.26259C12.5552 3.16754 11.4686 2.33586 10.2111 1.88097C8.95358 1.42608 7.58637 1.37012 6.29589 1.72071C5.00541 2.0713 3.85447 2.81138 3 3.84004V2.00004H2V6.00004H6V5.00004Z" fill="black" style="fill:black;fill-opacity:1;"/>
  <path d="M10 11H12.61C11.9633 11.9939 11.0128 12.7521 9.90009 13.1618C8.78739 13.5714 7.5721 13.6105 6.43539 13.2731C5.29867 12.9358 4.30139 12.2402 3.59221 11.29C2.88303 10.3397 2.49993 9.18575 2.5 8.00004H1.5C1.49863 9.3373 1.90973 10.6424 2.67727 11.7375C3.4448 12.8325 4.53141 13.6642 5.78892 14.1191C7.04642 14.574 8.41363 14.63 9.70411 14.2794C10.9946 13.9288 12.1455 13.1887 13 12.16V14H14V10H10V11Z" fill="black" style="fill:black;fill-opacity:1;"/>
</svg>
