<svg width="16" height="16" viewBox="0 0 16 16" fill="none" xmlns="http://www.w3.org/2000/svg">
<path d="M10.8535 10.1465L8.3535 7.6465C8.25595 7.54885 8.128 7.5 8 7.5C7.872 7.5 7.744 7.54885 7.6465 7.6465L1 14.2929L1.70715 15L8 8.70705L9.79285 10.5L7 13.2929L7.70715 14L10.8535 10.8535C10.9511 10.7559 11 10.6279 11 10.5C11 10.3721 10.9511 10.2441 10.8535 10.1465Z" fill="black" style="fill:black;fill-opacity:1;"/>
<path d="M14.2929 4.5L11.5 7.29295L8.4994 4.2922C8.3034 4.0963 8.04575 3.99895 7.7884 3.99995C7.5336 4.00095 7.27915 4.09835 7.08525 4.2922L4.00005 7.37985L4.7072 8.0869L7.7924 4.9995L11.1465 8.3535C11.2441 8.45115 11.3721 8.5 11.5 8.5C11.6279 8.5 11.756 8.45115 11.8535 8.3535L15 5.207L14.2929 4.5Z" fill="black" style="fill:black;fill-opacity:1;"/>
<path d="M11.25 4.5C10.2851 4.5 9.5 3.71495 9.5 2.75C9.5 1.78505 10.2851 1 11.25 1C12.2149 1 13 1.78505 13 2.75C13 3.71495 12.2149 4.5 11.25 4.5ZM11.25 2C10.8364 2 10.5 2.33645 10.5 2.75C10.5 3.16355 10.8364 3.5 11.25 3.5C11.6636 3.5 12 3.16355 12 2.75C12 2.33645 11.6636 2 11.25 2Z" fill="black" style="fill:black;fill-opacity:1;"/>
</svg>
