<svg width="16" height="16" viewBox="0 0 16 16" fill="none" xmlns="http://www.w3.org/2000/svg">
  <path d="M10.293 10.707L8.5 8.914V12.5H7.5V8.914L5.707 10.707L5 10L8 7L11 10L10.293 10.707Z" fill="black" style="fill:black;fill-opacity:1;"/>
  <path fill-rule="evenodd" clip-rule="evenodd" d="M2 2H14C14.2652 2 14.5196 2.10536 14.7071 2.29289C14.8946 2.48043 15 2.73478 15 3V5C15 5.26522 14.8946 5.51957 14.7071 5.70711C14.5196 5.89464 14.2652 6 14 6V14C14 14.2652 13.8946 14.5196 13.7071 14.7071C13.5196 14.8946 13.2652 15 13 15H3C2.73478 15 2.48043 14.8946 2.29289 14.7071C2.10536 14.5196 2 14.2652 2 14V6C1.73478 6 1.48043 5.89464 1.29289 5.70711C1.10536 5.51957 1 5.26522 1 5V3C1 2.73478 1.10536 2.48043 1.29289 2.29289C1.48043 2.10536 1.73478 2 2 2ZM13 14H3V6H13V14ZM2 3V5H14V3H2Z" fill="black" style="fill:black;fill-opacity:1;"/>
</svg>
