<svg width="16" height="16" viewBox="0 0 16 16" fill="none" xmlns="http://www.w3.org/2000/svg">
  <path d="M5.805 14.9599C5.70268 14.9167 5.61765 14.8407 5.56333 14.7438C5.50901 14.647 5.48849 14.5348 5.505 14.4249L6.415 8.49993H4C3.92344 8.50199 3.84743 8.48644 3.77783 8.45447C3.70823 8.42249 3.64691 8.37496 3.5986 8.31553C3.55028 8.2561 3.51626 8.18637 3.49917 8.11171C3.48208 8.03705 3.48236 7.95947 3.5 7.88493L5 1.38493C5.0264 1.27307 5.09053 1.17371 5.1816 1.10359C5.27266 1.03347 5.38511 0.996863 5.5 0.999935H10.5C10.5747 0.999681 10.6485 1.01617 10.716 1.04818C10.7835 1.0802 10.8429 1.12692 10.89 1.18493C10.9377 1.2436 10.9715 1.31233 10.9888 1.38594C11.0062 1.45956 11.0066 1.53614 10.99 1.60993L10.125 5.49993H12.5C12.5937 5.49975 12.6856 5.5259 12.7652 5.57541C12.8447 5.62491 12.9088 5.69578 12.95 5.77993C12.9858 5.8607 12.9996 5.94952 12.99 6.03735C12.9803 6.12518 12.9475 6.20889 12.895 6.27993L6.395 14.7799C6.35107 14.8451 6.29242 14.8989 6.22379 14.9371C6.15517 14.9754 6.0785 14.9969 6 14.9999C5.9331 14.9987 5.867 14.9851 5.805 14.9599ZM8.875 6.49993L9.87501 1.99993H5.9L4.63 7.49993H7.585L6.79 12.6399L11.5 6.49993H8.875Z" fill="black" style="fill:black;fill-opacity:1;"/>
</svg>
