<svg width="16" height="16" viewBox="0 0 16 16" fill="none" xmlns="http://www.w3.org/2000/svg">
  <path d="M5.80502 14.9599C5.7027 14.9167 5.61767 14.8407 5.56335 14.7438C5.50902 14.647 5.4885 14.5348 5.50502 14.4249L6.41502 8.49993H4.00002C3.92346 8.50199 3.84744 8.48644 3.77785 8.45447C3.70825 8.42249 3.64693 8.37496 3.59861 8.31553C3.5503 8.2561 3.51628 8.18637 3.49918 8.11171C3.48209 8.03705 3.48238 7.95947 3.50002 7.88493L5.00002 1.38493C5.02641 1.27307 5.09054 1.17371 5.18161 1.10359C5.27268 1.03347 5.38512 0.996863 5.50002 0.999935H10.5C10.5747 0.999681 10.6485 1.01617 10.716 1.04818C10.7835 1.0802 10.843 1.12692 10.89 1.18493C10.9377 1.2436 10.9715 1.31233 10.9889 1.38594C11.0062 1.45956 11.0066 1.53614 10.99 1.60993L10.125 5.49993H12.5C12.5937 5.49975 12.6856 5.5259 12.7652 5.57541C12.8447 5.62491 12.9088 5.69578 12.95 5.77993C12.9859 5.8607 12.9996 5.94952 12.99 6.03735C12.9803 6.12518 12.9476 6.20889 12.895 6.27993L6.39502 14.7799C6.35109 14.8451 6.29243 14.8989 6.22381 14.9371C6.15518 14.9754 6.07851 14.9969 6.00002 14.9999C5.93312 14.9987 5.86701 14.9851 5.80502 14.9599ZM8.87502 6.49993L9.87502 1.99993H5.90002L4.63002 7.49993H7.58502L6.79002 12.6399L11.5 6.49993H8.87502Z" fill="black" style="fill:black;fill-opacity:1;"/>
</svg>
